<?xml version="1.0" encoding="UTF-8" standalone="no"?>
<!-- Created with Inkscape (http://www.inkscape.org/) -->

<svg
   width="138.03831mm"
   height="105.69614mm"
   viewBox="0 0 138.03831 105.69614"
   version="1.1"
   id="svg5"
   xml:space="preserve"
   inkscape:version="1.2.2 (732a01da63, 2022-12-09)"
   sodipodi:docname="logo.svg"
   xmlns:inkscape="http://www.inkscape.org/namespaces/inkscape"
   xmlns:sodipodi="http://sodipodi.sourceforge.net/DTD/sodipodi-0.dtd"
   xmlns="http://www.w3.org/2000/svg"
   xmlns:svg="http://www.w3.org/2000/svg"><sodipodi:namedview
     id="namedview7"
     pagecolor="#ffffff"
     bordercolor="#000000"
     borderopacity="0.25"
     inkscape:showpageshadow="2"
     inkscape:pageopacity="0.0"
     inkscape:pagecheckerboard="0"
     inkscape:deskcolor="#d1d1d1"
     inkscape:document-units="mm"
     showgrid="false"
     inkscape:zoom="1.6819304"
     inkscape:cx="291.92647"
     inkscape:cy="182.52836"
     inkscape:window-width="1920"
     inkscape:window-height="1129"
     inkscape:window-x="-8"
     inkscape:window-y="-8"
     inkscape:window-maximized="1"
     inkscape:current-layer="layer1" /><defs
     id="defs2" /><g
     inkscape:label="Layer 1"
     inkscape:groupmode="layer"
     id="layer1"
     transform="translate(-4.6016634,-42.135004)"><path
       id="rect542"
       style="fill:#808080;stroke:#000000;stroke-width:2.752;stroke-dasharray:none;stroke-opacity:1;paint-order:stroke markers fill"
       d="m 7.9620384,101.14989 c -1.0994181,0 -1.984375,0.88547 -1.984375,1.98489 v 28.90832 c 0,1.09942 0.8849569,1.98437 1.984375,1.98437 H 60.449791 c -0.02775,0.13266 -0.04289,0.27021 -0.04289,0.41135 v 5.09478 H 8.1196515 c -1.0994192,0 -1.984375,0.88495 -1.984375,1.98437 v 2.95228 c 0,1.09941 0.8849558,1.98489 1.984375,1.98489 H 139.27908 c 1.09942,0 1.9849,-0.88548 1.9849,-1.98489 v -2.95228 c 0,-1.09942 -0.88548,-1.98437 -1.9849,-1.98437 H 77.868366 v -5.09478 c 0,-0.14114 -0.01514,-0.27869 -0.04289,-0.41135 h 60.981804 c 1.09942,0 1.98437,-0.88495 1.98437,-1.98437 v -28.90832 c 0,-1.09942 -0.88495,-1.98489 -1.98437,-1.98489 z m 16.7354126,6.44974 a 9.5958681,9.5958681 0 0 1 9.595797,9.59579 9.5958681,9.5958681 0 0 1 -9.595797,9.59632 9.5958681,9.5958681 0 0 1 -9.595796,-9.59632 9.5958681,9.5958681 0 0 1 9.595796,-9.59579 z"
       inkscape:export-filename="logo.png"
       inkscape:export-xdpi="96"
       inkscape:export-ydpi="96" /><path
       id="path1373"
       style="fill:none;stroke:#000000;stroke-width:2.75201;stroke-dasharray:none;stroke-opacity:1;paint-order:stroke markers fill"
       d="M 52.200601,92.962931 A 25.405457,25.405457 0 0 1 74.485965,79.755827 25.405457,25.405457 0 0 1 96.774813,92.969305" /><path
       id="path1373-1"
       style="fill:none;stroke:#000000;stroke-width:5.57369;stroke-dasharray:none;stroke-opacity:1;paint-order:stroke markers fill"
       d="M 31.63715,92.379368 A 48.395598,54.705911 0 0 1 74.089192,63.940334 48.395598,54.705911 0 0 1 116.54787,92.393093" /><path
       id="path1373-1-5"
       style="fill:none;stroke:#000000;stroke-width:7.85519;stroke-dasharray:none;stroke-opacity:1;paint-order:stroke markers fill"
       d="M 12.370977,86.14269 A 68.20555,77.098888 0 0 1 72.200074,46.062599 68.20555,77.098888 0 0 1 132.03853,86.162033" /></g></svg>
